<svg width="22" height="22" fill="none" xmlns="http://www.w3.org/2000/svg"><path d="M12.054 8.628c-1.054 0-1.911.846-1.911 1.887 0 1.04.857 1.886 1.911 1.886s1.912-.846 1.912-1.886-.858-1.887-1.912-1.887Zm0 2.781a.902.902 0 0 1-.906-.894c0-.494.406-.895.906-.895s.907.401.907.895a.902.902 0 0 1-.907.894Zm4.93.096-.65-.464a4.246 4.246 0 0 0 .001-1.044l.65-.464c.165-.107.392-.358.283-.913a2.919 2.919 0 0 0-.35-.872c-.481-.824-1.065-1.184-1.531-.95l-.73.322a4.288 4.288 0 0 0-.921-.526l-.082-.78c-.025-.518-.633-.838-1.6-.838-.963 0-1.572.319-1.599.835l-.082.783a4.283 4.283 0 0 0-.92.526l-.73-.321c-.176-.089-.51-.157-.942.213a2.944 2.944 0 0 0-.59.736c-.482.823-.507 1.502-.069 1.784l.651.465a4.238 4.238 0 0 0 .001 1.044l-.651.466c-.439.281-.415.96.067 1.784.174.298.384.559.59.736.433.37.767.302.943.214l.737-.325c.282.21.587.384.912.52l.083.792c.027.516.636.835 1.6.835.966 0 1.574-.32 1.599-.837l.083-.79c.324-.136.63-.31.912-.52l.738.325c.466.235 1.05-.126 1.531-.95.483-.826.507-1.506.065-1.786Zm-1.686-1.633a3.238 3.238 0 0 1-.001 1.294.493.493 0 0 0 .197.5l.788.563c-.023.116-.09.32-.234.567a1.96 1.96 0 0 1-.38.483l-.892-.393a.507.507 0 0 0-.537.08c-.332.29-.713.506-1.13.645a.497.497 0 0 0-.34.419l-.1.959a2.008 2.008 0 0 1-.615.082c-.289 0-.5-.044-.614-.082l-.101-.96a.497.497 0 0 0-.34-.418 3.299 3.299 0 0 1-1.13-.645.507.507 0 0 0-.537-.08l-.892.393a1.964 1.964 0 0 1-.38-.484 1.941 1.941 0 0 1-.234-.566l.788-.564a.493.493 0 0 0 .198-.5 3.263 3.263 0 0 1-.002-1.294.493.493 0 0 0-.197-.498l-.787-.563c.023-.116.09-.32.234-.566.145-.247.29-.406.38-.484l.886.39c.18.08.39.048.537-.081.335-.292.717-.51 1.137-.65A.497.497 0 0 0 11.34 7l.1-.95c.113-.038.325-.082.614-.082s.501.044.614.083l.1.95c.02.193.153.356.34.418.42.14.803.358 1.137.65.148.129.358.16.538.081l.885-.39c.09.078.236.237.38.484.144.246.212.45.234.566l-.786.563a.493.493 0 0 0-.198.499Zm2.676-7.06H6.134c-1.91 0-3.45 1.53-3.45 3.415v9.664l-1.619 1.421V6.108C1.065 3.43 3.3 1.27 6.014 1.27h9.377c.527 0 1.031.155 1.457.466a.508.508 0 0 0 .702-.109.483.483 0 0 0-.105-.686 3.453 3.453 0 0 0-2.054-.662H6.014C2.746.279.06 2.883.06 6.108v12.328c0 .196.132.374.314.454a.53.53 0 0 0 .555-.088l1.755-1.569v3.752a.49.49 0 0 0 .492.496.502.502 0 0 0 .337-.13l2.92-2.63.235-.215c.14-.13.271-.25.315-.268.041-.015.214-.009.398-.007.099.002.214.007.35.007h10.243c1.91 0 3.464-1.542 3.464-3.427V6.227c0-1.885-1.554-3.414-3.464-3.414Zm2.459 11.999c0 1.338-1.103 2.436-2.459 2.436H7.73c-.13 0-.24-.006-.336-.007-.74-.01-.86.034-1.412.543-.065.06-.134.128-.221.207L3.688 19.86V6.227a2.43 2.43 0 0 1 2.447-2.422h11.84c1.355 0 2.458 1.084 2.458 2.422v8.584Z" fill="#8D5DA7"/></svg>