<svg width="24" height="24" fill="none" xmlns="http://www.w3.org/2000/svg"><g clip-path="url(#a)" fill="#8D5DA7"><path d="M15.792 13.933c3.81 0 6.91-3.102 6.91-6.914 0-3.813-3.1-6.915-6.91-6.915s-6.91 3.102-6.91 6.915c0 3.812 3.1 6.914 6.91 6.914Zm0-13.06a6.152 6.152 0 0 1 6.142 6.146 6.152 6.152 0 0 1-6.142 6.146 6.152 6.152 0 0 1-6.143-6.146A6.152 6.152 0 0 1 15.792.872Z"/><path d="M15.79 8.939a.769.769 0 0 1-.767-.768.384.384 0 1 0-.768 0c0 .713.491 1.31 1.152 1.482v.054a.384.384 0 1 0 .767 0v-.054a1.535 1.535 0 0 0 1.152-1.482c0-.848-.689-1.537-1.535-1.537a.769.769 0 1 1 .767-.768.384.384 0 1 0 .768 0c0-.714-.49-1.31-1.152-1.482v-.055a.384.384 0 1 0-.767 0v.055a1.535 1.535 0 0 0-1.152 1.482c0 .847.689 1.536 1.536 1.536a.769.769 0 0 1 0 1.537Z"/><path d="M15.79 12.397a5.382 5.382 0 0 0 5.376-5.378A5.382 5.382 0 0 0 15.79 1.64a5.382 5.382 0 0 0-5.375 5.379 5.382 5.382 0 0 0 5.375 5.378Zm0-9.988a4.613 4.613 0 0 1 4.608 4.61 4.613 4.613 0 0 1-4.607 4.61 4.614 4.614 0 0 1-4.607-4.61 4.614 4.614 0 0 1 4.607-4.61ZM2.354 20.656a.577.577 0 1 0-1.153.001.577.577 0 0 0 1.153 0ZM23.263 16.238c-.424-.734-1.366-.985-2.074-.575l-4.419 2.152c-.686.344-1.38.344-2.9.344-1.485 0-3.752-.376-3.775-.38a.383.383 0 1 0-.126.758c.095.017 2.352.39 3.902.39 1.594 0 2.394 0 3.239-.423l4.439-2.163a.763.763 0 0 1 1.048.281.771.771 0 0 1-.291 1.056l-5.19 3.233c-.012.007-1.12.705-3.63.705-2.176 0-5.538-1.854-5.586-1.88-.035-.017-.867-.425-2.475-.425a.384.384 0 0 0 0 .768c1.396 0 2.115.336 2.117.336.145.08 3.57 1.969 5.945 1.969 2.772 0 4.001-.799 4.042-.826l5.172-3.221c.355-.205.609-.537.715-.933.107-.397.052-.81-.153-1.166Z"/><path d="M5.426 14.701h3.07c.449 0 1.21.572 1.882 1.076.842.632 1.638 1.23 2.342 1.23h2.303c.583 0 .873.264.88.27a.383.383 0 0 0 .543 0 .384.384 0 0 0 0-.542c-.05-.051-.522-.497-1.423-.497H12.72c-.448 0-1.21-.572-1.881-1.076-.843-.632-1.639-1.229-2.342-1.229H5.426a.384.384 0 0 0 0 .768ZM3.122 12.397H.818a.384.384 0 0 0 0 .768h2.304c.212 0 .384.172.384.384V22a.384.384 0 0 1-.384.385H.818a.384.384 0 0 0 0 .768h2.304c.635 0 1.152-.517 1.152-1.153v-8.45c0-.636-.517-1.153-1.152-1.153Z"/></g><defs><clipPath id="a"><path fill="#fff" transform="translate(.435 .104)" d="M0 0h23.035v23.05H0z"/></clipPath></defs></svg>