<svg width="24" height="19" viewBox="0 0 24 19" fill="none" xmlns="http://www.w3.org/2000/svg">
<path d="M2.28671 2.92743C2.37467 2.92743 2.46129 2.89171 2.52336 2.8292C2.58586 2.76714 2.62158 2.68052 2.62158 2.59256C2.62158 2.5046 2.58586 2.41798 2.52336 2.35592C2.46129 2.29341 2.37467 2.25769 2.28671 2.25769C2.19875 2.25769 2.11213 2.29341 2.05007 2.35592C1.98756 2.41798 1.95184 2.5046 1.95184 2.59256C1.95184 2.68052 1.98756 2.76714 2.05007 2.8292C2.11213 2.89171 2.19831 2.92743 2.28671 2.92743Z" fill="#8D5DA7"/>
<path d="M3.35831 2.92743C3.44627 2.92743 3.53289 2.89171 3.59495 2.8292C3.65746 2.76714 3.69318 2.68052 3.69318 2.59256C3.69318 2.5046 3.65746 2.41798 3.59495 2.35592C3.53289 2.29341 3.44627 2.25769 3.35831 2.25769C3.27035 2.25769 3.18373 2.29341 3.12167 2.35592C3.05916 2.41798 3.02344 2.5046 3.02344 2.59256C3.02344 2.68052 3.05916 2.76714 3.12167 2.8292C3.18373 2.89171 3.27035 2.92743 3.35831 2.92743Z" fill="#8D5DA7"/>
<path d="M4.4299 2.92743C4.51786 2.92743 4.60448 2.89171 4.66654 2.8292C4.72905 2.76714 4.76477 2.68052 4.76477 2.59256C4.76477 2.5046 4.72905 2.41798 4.66654 2.35592C4.60448 2.29341 4.51786 2.25769 4.4299 2.25769C4.34194 2.25769 4.25532 2.29341 4.19326 2.35592C4.13075 2.41798 4.09503 2.5046 4.09503 2.59256C4.09503 2.68052 4.13075 2.76714 4.19326 2.8292C4.25532 2.89171 4.34194 2.92743 4.4299 2.92743Z" fill="#8D5DA7"/>
<path d="M5.85867 2.92743H19.4321C19.617 2.92743 19.767 2.7775 19.767 2.59256C19.767 2.40762 19.617 2.25769 19.4321 2.25769H5.85867C5.67374 2.25769 5.5238 2.40762 5.5238 2.59256C5.5238 2.7775 5.67374 2.92743 5.85867 2.92743Z" fill="#8D5DA7"/>
<path d="M20.8608 2.92743H21.5752C21.7601 2.92743 21.9101 2.7775 21.9101 2.59256C21.9101 2.40762 21.7601 2.25769 21.5752 2.25769H20.8608C20.6759 2.25769 20.5259 2.40762 20.5259 2.59256C20.5259 2.7775 20.6759 2.92743 20.8608 2.92743Z" fill="#8D5DA7"/>
<path d="M2.64395 6.14423H5.14432C5.32926 6.14423 5.47919 5.9943 5.47919 5.80936C5.47919 5.62442 5.32926 5.47449 5.14432 5.47449H2.64395C2.45901 5.47449 2.30908 5.62442 2.30908 5.80936C2.30908 5.9943 2.45901 6.14423 2.64395 6.14423Z" fill="#8D5DA7"/>
<path d="M5.14432 7.2616H2.64395C2.45901 7.2616 2.30908 7.41153 2.30908 7.59647C2.30908 7.78141 2.45901 7.93134 2.64395 7.93134H5.14432C5.32926 7.93134 5.47919 7.78141 5.47919 7.59647C5.47919 7.41153 5.32926 7.2616 5.14432 7.2616Z" fill="#8D5DA7"/>
<path d="M5.14432 9.04883H2.64395C2.45901 9.04883 2.30908 9.19876 2.30908 9.3837C2.30908 9.56864 2.45901 9.71857 2.64395 9.71857H5.14432C5.32926 9.71857 5.47919 9.56864 5.47919 9.3837C5.47919 9.19876 5.32926 9.04883 5.14432 9.04883Z" fill="#8D5DA7"/>
<path d="M5.14432 10.8359H2.64395C2.45901 10.8359 2.30908 10.9859 2.30908 11.1708C2.30908 11.3557 2.45901 11.5057 2.64395 11.5057H5.14432C5.32926 11.5057 5.47919 11.3557 5.47919 11.1708C5.47919 10.9859 5.32926 10.8359 5.14432 10.8359Z" fill="#8D5DA7"/>
<path d="M9.43061 14.4103H8.71622C8.53128 14.4103 8.38135 14.5602 8.38135 14.7451C8.38135 14.9301 8.53128 15.08 8.71622 15.08H9.43061C9.61555 15.08 9.76548 14.9301 9.76548 14.7451C9.76548 14.5602 9.61555 14.4103 9.43061 14.4103Z" fill="#8D5DA7"/>
<path d="M9.43061 16.1973H8.71622C8.53128 16.1973 8.38135 16.3472 8.38135 16.5321C8.38135 16.7171 8.53128 16.867 8.71622 16.867H9.43061C9.61555 16.867 9.76548 16.7171 9.76548 16.5321C9.76548 16.3472 9.61555 16.1973 9.43061 16.1973Z" fill="#8D5DA7"/>
<path d="M10.8576 15.08H11.572C11.7569 15.08 11.9068 14.9301 11.9068 14.7451C11.9068 14.5602 11.7569 14.4103 11.572 14.4103H10.8576C10.6726 14.4103 10.5227 14.5602 10.5227 14.7451C10.5227 14.9301 10.6726 15.08 10.8576 15.08Z" fill="#8D5DA7"/>
<path d="M12.2864 16.1973H10.8576C10.6726 16.1973 10.5227 16.3472 10.5227 16.5321C10.5227 16.7171 10.6726 16.867 10.8576 16.867H12.2864C12.4713 16.867 12.6212 16.7171 12.6212 16.5321C12.6212 16.3472 12.4713 16.1973 12.2864 16.1973Z" fill="#8D5DA7"/>
<path d="M18.3605 14.4103H13.0025C12.8176 14.4103 12.6677 14.5602 12.6677 14.7451C12.6677 14.9301 12.8176 15.08 13.0025 15.08H18.3605C18.5454 15.08 18.6953 14.9301 18.6953 14.7451C18.6953 14.5602 18.5454 14.4103 18.3605 14.4103Z" fill="#8D5DA7"/>
<path d="M15.8601 16.1973H13.717C13.532 16.1973 13.3821 16.3472 13.3821 16.5321C13.3821 16.7171 13.532 16.867 13.717 16.867H15.8601C16.0451 16.867 16.195 16.7171 16.195 16.5321C16.195 16.3472 16.0451 16.1973 15.8601 16.1973Z" fill="#8D5DA7"/>
<path d="M5.14432 12.6229H2.64395C2.45901 12.6229 2.30908 12.7729 2.30908 12.9578C2.30908 13.1427 2.45901 13.2927 2.64395 13.2927H5.14432C5.32926 13.2927 5.47919 13.1427 5.47919 12.9578C5.47919 12.7729 5.32926 12.6229 5.14432 12.6229Z" fill="#8D5DA7"/>
<path d="M5.14432 14.4103H2.64395C2.45901 14.4103 2.30908 14.5602 2.30908 14.7451C2.30908 14.9301 2.45901 15.08 2.64395 15.08H5.14432C5.32926 15.08 5.47919 14.9301 5.47919 14.7451C5.47919 14.5602 5.32926 14.4103 5.14432 14.4103Z" fill="#8D5DA7"/>
<path d="M5.14432 16.1973H2.64395C2.45901 16.1973 2.30908 16.3472 2.30908 16.5321C2.30908 16.7171 2.45901 16.867 2.64395 16.867H5.14432C5.32926 16.867 5.47919 16.7171 5.47919 16.5321C5.47919 16.3472 5.32926 16.1973 5.14432 16.1973Z" fill="#8D5DA7"/>
<path d="M21.5752 0.827515H2.28666C1.3142 0.827515 0.52301 1.61921 0.52301 2.5923V16.8893C0.52301 17.8624 1.3142 18.6541 2.28666 18.6541H21.5752C22.5477 18.6541 23.3389 17.8624 23.3389 16.8893V2.5923C23.3389 1.61921 22.5477 0.827515 21.5752 0.827515ZM7.26507 4.35708H22.6691V12.6225H7.26507V4.35708ZM2.28666 1.49769H21.5752C22.1784 1.49769 22.6691 1.98874 22.6691 2.5923V3.68691H1.19275V2.5923C1.19275 1.98874 1.68349 1.49769 2.28666 1.49769ZM1.19275 16.8893V4.35708H6.59533V17.9839H2.28666C1.68349 17.9839 1.19275 17.4928 1.19275 16.8893ZM21.5752 17.9839H7.26507V13.2927H22.6691V16.8893C22.6691 17.4928 22.1784 17.9839 21.5752 17.9839Z" fill="#8D5DA7"/>
<path d="M17.2552 10.2692H10.4453C10.0692 10.2692 9.76434 10.4789 9.76434 10.7377C9.76434 10.9965 10.0692 11.2063 10.4453 11.2063H17.2552C17.6313 11.2063 17.9362 10.9965 17.9362 10.7377C17.9362 10.4789 17.6313 10.2692 17.2552 10.2692Z" fill="#8D5DA7"/>
<path d="M16.2742 5.38586C16.0189 5.10185 15.6049 5.10185 15.3496 5.38586L13.1966 7.78063L12.3513 6.84035C12.096 6.55635 11.682 6.55635 11.4267 6.84035C11.1714 7.12436 11.1714 7.58485 11.4267 7.86886L12.7343 9.32339C12.9897 9.6074 13.4036 9.6074 13.659 9.32339L16.2742 6.41436C16.5295 6.13036 16.5295 5.66986 16.2742 5.38586Z" fill="#8D5DA7"/>
</svg>
